# xmcd
#
# Track frame offsets:
#	150
#	16750
#	30306
#	48322
#	64651
#	84243
#	98172
#	114707
#	128234
#	145709
#	162395
#	180071
#	195575
#	212324
#	228933
#	243324
#
# Disc length: 3458 seconds
#
# Revision: 0
# Processed by: cddbd v1.5.2PL0 Copyright (c) Steve Scherf et al.
# Submitted via: audiograbber 1.83.01
#
DISCID=bb0d8010
DTITLE=Various Artist - Hüttenkracher CD3
DYEAR=2000
DGENRE=Party
TTITLE0=Lou Bega - Mambo No. 5
TTITLE1=Marianne Rosenberg - Er gehört zu mir
TTITLE2=Frank Zander - Ich trink auf dein wohl Marie
TTITLE3=DJ Krause - Zehn nackte Friseusen
TTITLE4=Die Toten Socken - Bayern
TTITLE5=Peter Reusch - Ich schenk dir mein Herz
TTITLE6=Tom Angelripper - Es gibt kein Bier auf Hawaii
TTITLE7=Dolomitensextett - Die Hände zum Himmel
TTITLE8=Flüssignahrung - Narcotic
TTITLE9=The Caribbeans - Mamboleo
TTITLE10=GINA ORANGE - Jumping Around
TTITLE11=Wängagirls - The Rigga-Ding-Dong-Song
TTITLE12=Bozo der Boss - Ich bin der Farmer
TTITLE13=Peter Steinbach - Zeig doch mal die Möpse
TTITLE14=Touche feat. Krayzee - Y.M.C.A.
TTITLE15=Phil and John - Die Party ist aus
EXTD=
EXTT0=
EXTT1=
EXTT2=
EXTT3=
EXTT4=
EXTT5=
EXTT6=
EXTT7=
EXTT8=
EXTT9=
EXTT10=
EXTT11=
EXTT12=
EXTT13=
EXTT14=
EXTT15=
PLAYORDER=
